<?xml version="1.0" encoding="UTF-8"?>
<svg version="1.1" xmlns="http://www.w3.org/2000/svg" width="1024" height="1024">
<path d="M0 0 C-1.11668594 2.23337188 -2.16968766 3.08668513 -4.09025574 4.65786743 C-8.13114397 8.05884139 -11.84207512 11.72258498 -15.5559082 15.47412109 C-16.27548203 16.19676147 -16.99505585 16.91940186 -17.73643494 17.66394043 C-19.28654491 19.22116337 -20.83552541 20.7795113 -22.38347816 22.33887863 C-24.83080093 24.80367147 -27.28172081 27.26483434 -29.73368835 29.7250061 C-36.70019154 36.71590644 -43.66094279 43.71251386 -50.61743164 50.71337891 C-54.88119835 55.00384217 -59.14975337 59.28949216 -63.42134666 63.57216263 C-65.04880266 65.20584357 -66.67435663 66.84142152 -68.29799843 68.47889328 C-70.55786979 70.75786115 -72.82372362 73.03071311 -75.09106445 75.30224609 C-75.76483124 75.98477448 -76.43859802 76.66730286 -77.13278198 77.37051392 C-77.74806259 77.98449036 -78.3633432 78.5984668 -78.99726868 79.23104858 C-79.79941787 80.03791139 -79.79941787 80.03791139 -80.6177721 80.86107445 C-82 82 -82 82 -84 82 C-84.26176025 82.58410645 -84.52352051 83.16821289 -84.79321289 83.77001953 C-90.99904744 95.23756814 -104.29942906 105.12641694 -116.40625 109.125 C-122.65943168 110.61630155 -129.11534138 110.20935016 -135.5 110.125 C-136.799375 110.11597656 -138.09875 110.10695313 -139.4375 110.09765625 C-142.62519299 110.07421733 -145.8124982 110.0414044 -149 110 C-149.33 110.66 -149.66 111.32 -150 112 C-150 111.34 -150 110.68 -150 110 C-151.32 110 -152.64 110 -154 110 C-154 110.66 -154 111.32 -154 112 C-154.66 111.67 -155.32 111.34 -156 111 C-158.81118101 110.89626625 -161.59777903 110.85319469 -164.40942383 110.85473633 C-165.27950577 110.85137772 -166.14958771 110.8480191 -167.04603577 110.84455872 C-169.93304864 110.83503125 -172.82000361 110.83310457 -175.70703125 110.83203125 C-177.71001713 110.82881944 -179.71300278 110.82545543 -181.71598816 110.82194519 C-185.92012068 110.81594909 -190.12423264 110.81410574 -194.32836914 110.81469727 C-199.71541349 110.81479881 -205.1023258 110.80115707 -210.48933887 110.78392506 C-214.62860215 110.77280455 -218.76783353 110.77077809 -222.90711021 110.77130699 C-224.89302716 110.77012655 -226.87894492 110.76570119 -228.86484718 110.75797462 C-231.64412282 110.74817571 -234.42311232 110.75105266 -237.20239258 110.75708008 C-238.02284058 110.75146057 -238.84328857 110.74584106 -239.68859863 110.74005127 C-243.94063624 110.76347979 -247.10909451 111.09369433 -251 113 C-251.99 113.33 -252.98 113.66 -254 114 C-260.93660703 119.22491606 -266.93037235 125.7668966 -273.0625 131.89453125 C-274.10474671 132.93355816 -275.14706571 133.97251256 -276.18945312 135.01139832 C-278.35609545 137.17209798 -280.5207074 139.33480816 -282.68408203 141.4987793 C-285.4610273 144.27582712 -288.24484587 147.04587648 -291.03038025 149.81430531 C-293.17667807 151.94952323 -295.31845472 154.08923136 -297.45895386 156.23026085 C-298.48444482 157.25457015 -299.51156144 158.27725456 -300.54031372 159.29828835 C-301.96908792 160.71732351 -303.39097848 162.14327959 -304.8125 163.56958008 C-305.62332031 164.37897537 -306.43414062 165.18837067 -307.26953125 166.02229309 C-309.21949975 167.81287749 -309.21949975 167.81287749 -309 170 C-309.69212082 170.40805374 -310.38424164 170.81610748 -311.09733582 171.23652649 C-314.74908492 173.45509619 -317.45265543 176.18856653 -320.44262695 179.21557617 C-321.0675856 179.84024277 -321.69254425 180.46490936 -322.33644104 181.10850525 C-324.39183332 183.16528593 -326.44005892 185.22904995 -328.48828125 187.29296875 C-329.91559369 188.72401305 -331.34334962 190.15461514 -332.77153015 191.58479309 C-336.52255863 195.34344433 -340.2675411 199.10806376 -344.0112915 202.8739624 C-347.83527087 206.71842936 -351.66494414 210.55721503 -355.49414062 214.39648438 C-363.00167386 221.92544359 -370.50283143 229.46072082 -378 237 C-377.06862408 238.29608947 -376.1296434 239.58671632 -375.1875 240.875 C-374.66542969 241.59429687 -374.14335937 242.31359375 -373.60546875 243.0546875 C-371.96727223 245.23028655 -371.96727223 245.23028655 -369 247 C-369 247.66 -369 248.32 -369 249 C-368.34 249 -367.68 249 -367 249 C-365.5546875 250.46875 -365.5546875 250.46875 -363.875 252.5 C-359.44379554 257.70666523 -354.83938496 262.78389467 -349.4375 267 C-347.25416175 268.79145703 -345.6161138 270.53182858 -343.79330158 272.67099762 C-340.30198461 276.69825171 -336.64198351 280.50108898 -332.86967468 284.26403809 C-332.18723515 284.94874318 -331.50479561 285.63344827 -330.80167609 286.338902 C-328.53639926 288.61046038 -326.26761327 290.87847929 -323.9987793 293.14648438 C-322.36534561 294.78291293 -320.73211631 296.41954552 -319.09907532 298.05636597 C-314.68044076 302.48380464 -310.25859513 306.90802256 -305.83587623 311.33138084 C-303.07386439 314.09410445 -300.31256619 316.85753923 -297.55152321 319.62123108 C-288.41924991 328.76226526 -279.28492976 337.90124574 -270.14789917 347.03752464 C-269.65654118 347.52884268 -269.16518318 348.02016072 -268.65893555 348.52636719 C-267.92099717 349.26424425 -267.92099717 349.26424425 -267.16815094 350.01702791 C-259.17323454 358.01153676 -251.18333428 366.01103832 -243.1956593 374.0127818 C-234.98852634 382.2342557 -226.7776028 390.45192648 -218.5629552 398.66589212 C-213.95298282 403.27560894 -209.34459378 407.88688249 -204.74002647 412.5019989 C-200.41801224 416.83364609 -196.09128795 421.16053087 -191.76080132 425.48370743 C-190.16828858 427.07516878 -188.5775004 428.66835787 -186.98852158 430.26334763 C-184.82871248 432.43080074 -182.66291459 434.59208069 -180.4954071 436.75183105 C-179.54246176 437.71249174 -179.54246176 437.71249174 -178.570265 438.69255972 C-175.80135416 441.89972254 -175.80135416 441.89972254 -172 443 C-171.67 443.66 -171.34 444.32 -171 445 C-168.55519921 444.81171228 -168.55519921 444.81171228 -166 444 C-165.73035431 443.44370911 -165.46070862 442.88741821 -165.18289185 442.31427002 C-163.52041213 439.06170981 -161.02131032 436.75969318 -158.44873047 434.22167969 C-157.88273132 433.65538849 -157.31673218 433.08909729 -156.73358154 432.50564575 C-154.8661528 430.63960762 -152.99174538 428.78074904 -151.1171875 426.921875 C-149.81923589 425.62765446 -148.52172584 424.33299095 -147.22463989 423.03790283 C-143.81285164 419.63374354 -140.39509948 416.23563366 -136.97607422 412.83874512 C-133.4869408 409.37008593 -130.00347613 405.89574417 -126.51953125 402.421875 C-119.68522632 395.60900698 -112.84460797 388.8025158 -106 382 C-106.495 381.38125 -106.99 380.7625 -107.5 380.125 C-109 378 -109 378 -109 376 C-109.59762146 375.72704102 -110.19524292 375.45408203 -110.81097412 375.17285156 C-112.9384059 374.03300132 -114.32540472 372.92785057 -116.02441406 371.234375 C-116.58469299 370.68040039 -117.14497192 370.12642578 -117.722229 369.55566406 C-118.60996002 368.66186035 -118.60996002 368.66186035 -119.515625 367.75 C-120.13145447 367.13608398 -120.74728394 366.52216797 -121.3817749 365.88964844 C-122.67852646 364.59425517 -123.97276657 363.29634356 -125.26464844 361.99609375 C-127.24975202 360.00024932 -129.24533591 358.01533274 -131.2421875 356.03125 C-132.50064211 354.77147445 -133.75847654 353.51107899 -135.015625 352.25 C-135.6155426 351.65413086 -136.21546021 351.05826172 -136.83355713 350.44433594 C-141 346.22993247 -141 346.22993247 -141 344 C-141.5686377 343.75471558 -142.13727539 343.50943115 -142.72314453 343.25671387 C-145.4003922 341.77900291 -147.24715794 340.03592756 -149.4296875 337.89257812 C-150.2973877 337.04409302 -151.16508789 336.19560791 -152.05908203 335.32141113 C-153.45296143 333.94028137 -153.45296143 333.94028137 -154.875 332.53125 C-155.59015778 331.82457436 -155.59015778 331.82457436 -156.31976318 331.10362244 C-158.84559006 328.60773498 -161.36563204 326.10617676 -163.88085938 323.59960938 C-166.46296708 321.0284308 -169.06306638 318.47631151 -171.6680603 315.92835236 C-173.68243599 313.95149016 -175.68301223 311.96107828 -177.68023682 309.96690369 C-179.09098416 308.56505136 -180.51580336 307.1774053 -181.94091797 305.79016113 C-187.20902298 300.48561473 -191.42974985 295.47789617 -193 288 C-192.55617095 278.92562568 -187.04426494 272.34576034 -181 266 C-179.23455793 264.42986714 -177.43122077 262.92116805 -175.60546875 261.421875 C-173.44647497 259.50977345 -171.78900214 257.25281751 -170 255 C-169.34 255 -168.68 255 -168 255 C-167.67 254.01 -167.34 253.02 -167 252 C-166.34 252 -165.68 252 -165 252 C-165 251.34 -165 250.68 -165 250 C-163.000181 248.10731416 -160.87936015 246.40114234 -158.75 244.65625 C-158.1725 244.1096875 -157.595 243.563125 -157 243 C-157 242.34 -157 241.68 -157 241 C-155.3214487 239.50370821 -153.58041102 238.07707339 -151.8125 236.6875 C-147.95011974 233.64206228 -144.45559096 230.49645163 -141 227 C-95 181 -49 135 -3 89 C1.13693785 90.90267371 3.97095372 93.69650971 7.14208984 96.89916992 C8.05022179 97.80445435 8.05022179 97.80445435 8.97669983 98.72802734 C10.97636441 100.72398852 12.96873697 102.72705967 14.9609375 104.73046875 C16.35295729 106.12368129 17.74534765 107.51652366 19.13809204 108.90901184 C22.05806084 111.83054506 24.97463961 114.755407 27.88867188 117.68286133 C31.6113051 121.42242898 35.340431 125.15543623 39.07192039 128.88616467 C41.94965531 131.76417259 44.82476792 134.64478823 47.6990242 137.52626991 C49.07225973 138.90267341 50.44608921 140.27848459 51.82053757 141.65367699 C53.74925228 143.58457838 55.67462798 145.51874951 57.59912109 147.45385742 C58.44098213 148.29503868 58.44098213 148.29503868 59.29985046 149.1532135 C60.8856166 150.7516792 62.44758146 152.36916078 64 154 C64.5826424 154.6012652 65.16528481 155.2025304 65.76558304 155.82201576 C66.32558376 156.42826475 66.88558449 157.03451374 67.46255493 157.65913391 C67.97327356 158.20334645 68.4839922 158.74755899 69.01018715 159.30826283 C70 161 70 161 69.95320797 162.89163876 C68.59423916 165.8974856 66.6215496 167.74645935 64.28611755 170.074646 C63.79115329 170.57217353 63.29618903 171.06970107 62.78622586 171.58230519 C61.12421758 173.24925878 59.45170639 174.90525693 57.77905273 176.56152344 C56.58615791 177.75357215 55.39392308 178.94628164 54.20230103 180.13960266 C50.96327984 183.37948585 47.71508109 186.61002542 44.46518588 189.83899593 C41.07121853 193.2142308 37.68572457 196.5979427 34.29933167 199.98077393 C27.88444118 206.38633388 21.46194052 212.78420705 15.03668696 219.17937016 C7.7225562 226.45998833 0.41692516 233.74910984 -6.88799584 241.03896666 C-21.91587608 256.03547503 -36.95442597 271.02124476 -52 286 C-50.51291526 289.11158135 -49.00342589 291.24121617 -46.54760742 293.67944336 C-45.84314987 294.38374985 -45.13869232 295.08805634 -44.41288757 295.81370544 C-43.65143936 296.56483109 -42.88999115 297.31595673 -42.10546875 298.08984375 C-41.3210994 298.87138321 -40.53673004 299.65292267 -39.72859192 300.45814514 C-37.21955151 302.95599818 -34.70366023 305.44682109 -32.1875 307.9375 C-30.50409855 309.61086676 -28.82115052 311.28468979 -27.13867188 312.95898438 C-24.04211176 316.03921921 -20.94297882 319.11681214 -17.84057617 322.19116211 C-17.17730316 322.85107147 -16.51403015 323.51098083 -15.83065796 324.19088745 C-14.68789409 325.32020188 -13.5371467 326.4415613 -12.37466431 327.55056763 C-11.21473021 328.66501412 -10.10090777 329.82720839 -9 331 C-9 331.66 -9 332.32 -9 333 C-8.13375 333.37125 -8.13375 333.37125 -7.25 333.75 C-4.67060021 335.18299988 -2.93878408 336.78424676 -1 339 C-1 339.66 -1 340.32 -1 341 C-0.01 341.33 0.98 341.66 2 342 C3.578125 343.6015625 3.578125 343.6015625 5.25 345.625 C7.54053463 348.35343096 9.85281042 350.80860666 12.5 353.1875 C19.25651814 359.85250774 24.08597787 369.527407 25 379 C25.08121094 379.83789062 25.16242187 380.67578125 25.24609375 381.5390625 C25.83397466 393.90237622 21.29356025 404.67357022 13.32367706 413.95143318 C11.52717955 415.8510199 9.69284639 417.70170895 7.83300781 419.53930664 C7.14284073 420.23312439 6.45267365 420.92694214 5.74159241 421.64178467 C3.48606819 423.90533627 1.21998485 426.15796156 -1.046875 428.41015625 C-2.62585721 429.98861931 -4.20432009 431.56760203 -5.7822876 433.14707947 C-9.07590822 436.44061075 -12.37460261 439.72894491 -15.67724609 443.01342773 C-19.91846617 447.23184061 -24.14839271 451.46136896 -28.37485886 455.69455814 C-31.62571134 458.94874235 -34.88151159 462.19793785 -38.13895416 465.44552422 C-39.70166813 467.0043812 -41.26302647 468.56459836 -42.82302094 470.12617683 C-44.99398669 472.29751139 -47.17130128 474.46226344 -49.35058594 476.62524414 C-49.99787155 477.27500717 -50.64515717 477.9247702 -51.3120575 478.59422302 C-55.7712468 483 -55.7712468 483 -58 483 C-58.2578125 483.58265625 -58.515625 484.1653125 -58.78125 484.765625 C-60.09834017 487.1802903 -61.55088384 488.81740177 -63.5 490.75 C-64.1084375 491.36359375 -64.716875 491.9771875 -65.34375 492.609375 C-67 494 -67 494 -69 494 C-69.27295898 494.59762146 -69.54591797 495.19524292 -69.82714844 495.81097412 C-70.96699868 497.9384059 -72.07214943 499.32540472 -73.765625 501.02441406 C-74.31959961 501.58469299 -74.87357422 502.14497192 -75.44433594 502.722229 C-76.33813965 503.60996002 -76.33813965 503.60996002 -77.25 504.515625 C-77.86391602 505.13145447 -78.47783203 505.74728394 -79.11035156 506.3817749 C-80.40574483 507.67852646 -81.70365644 508.97276657 -83.00390625 510.26464844 C-84.99975068 512.24975202 -86.98466726 514.24533591 -88.96875 516.2421875 C-90.22852555 517.50064211 -91.48892101 518.75847654 -92.75 520.015625 C-93.34586914 520.6155426 -93.94173828 521.21546021 -94.55566406 521.83355713 C-98.77006753 526 -98.77006753 526 -101 526 C-101.26159912 526.5862616 -101.52319824 527.17252319 -101.79272461 527.77655029 C-103.06953207 530.12805782 -104.43072937 531.68446317 -106.31640625 533.57519531 C-107.32755493 534.59580048 -107.32755493 534.59580048 -108.35913086 535.63702393 C-109.44979858 536.72161896 -109.44979858 536.72161896 -110.5625 537.828125 C-111.30959229 538.57713074 -112.05668457 539.32613647 -112.82641602 540.09783936 C-114.40427919 541.67706204 -115.98466499 543.25376774 -117.56738281 544.828125 C-119.99777965 547.24778946 -122.41730061 549.67796189 -124.8359375 552.109375 C-126.36915052 553.64126697 -127.90298352 555.17253872 -129.4375 556.703125 C-130.16461182 557.43428528 -130.89172363 558.16544556 -131.64086914 558.91876221 C-132.31496826 559.58655701 -132.98906738 560.25435181 -133.68359375 560.94238281 C-134.27712646 561.53432434 -134.87065918 562.12626587 -135.48217773 562.73614502 C-137 564 -137 564 -139 564 C-139.3403125 564.86625 -139.3403125 564.86625 -139.6875 565.75 C-141.34761639 568.59591381 -143.39187957 569.99841921 -146 572 C-150.51926015 576.36861815 -154.64009595 581.0563008 -158.79296875 585.76953125 C-159.88544922 586.87361328 -159.88544922 586.87361328 -161 588 C-161.66 588 -162.32 588 -163 588 C-163.66 589.98 -164.32 591.96 -165 594 C-169.8945033 593.59341001 -172.35731887 591.20815897 -175.65292072 587.85323715 C-176.20332625 587.30894499 -176.75373177 586.76465282 -177.32081625 586.20386696 C-179.1727334 584.3676175 -181.01001007 582.5173788 -182.84773254 580.66693115 C-184.18193687 579.33804914 -185.51701047 578.0100394 -186.8528797 576.68283105 C-190.52932086 573.02508727 -194.193113 569.35489543 -197.8549844 565.68257332 C-201.80363505 561.72695033 -205.76373271 557.78281647 -209.72236633 553.83718872 C-217.48075642 546.10048096 -225.22817829 538.35287832 -232.97166876 530.60126075 C-239.26770661 524.29892908 -245.56744327 518.00031764 -251.86984825 511.70435333 C-252.76607806 510.80902518 -253.66230787 509.91369702 -254.58569616 508.99123771 C-256.40634497 507.17244008 -258.22699947 505.35364814 -260.0476596 503.53486183 C-272.27994426 491.31445543 -284.50847904 479.09031161 -296.7292223 466.85836411 C-297.20733719 466.37981124 -297.68545209 465.90125837 -298.17805532 465.4082039 C-302.06067738 461.521975 -305.94318541 457.63563219 -309.82568618 453.74928211 C-324.95386866 438.60626828 -340.0937894 423.475083 -355.2434082 408.35351562 C-372.2666322 391.36175207 -389.28152173 374.36172042 -406.28396624 357.34915757 C-408.09886496 355.53323632 -409.91377764 353.71732902 -411.72870445 351.90143585 C-412.62167554 351.00798837 -413.51464663 350.11454089 -414.43467746 349.19401924 C-420.7195123 342.90702222 -427.01030338 336.62602354 -433.30350685 330.34740448 C-440.98154618 322.6869105 -448.65066637 315.01761994 -456.30856732 307.33699235 C-460.21414108 303.42029351 -464.12356019 299.50765577 -468.04401398 295.60584641 C-471.63814573 292.02858702 -475.22038442 288.43983733 -478.79377802 284.84186557 C-480.08349411 283.54728778 -481.37737476 282.25684164 -482.67596517 280.97116587 C-496.73423151 267.04258442 -506.85255204 252.11491162 -507.3125 231.5625 C-507.26985969 223.51200913 -505.35552329 216.64255549 -503 209 C-502.68804687 207.76121094 -502.37609375 206.52242187 -502.0546875 205.24609375 C-500.98054368 201.94011778 -500.38580175 201.27506302 -498 199 C-496.99043398 197.686312 -495.99657187 196.36048372 -495.01416016 195.02636719 C-490.41930094 189.06955104 -485.10875743 183.85838397 -479.7734375 178.578125 C-478.69638719 177.50481656 -477.61978625 176.43105702 -476.54360962 175.35687256 C-473.73224958 172.55308109 -470.91494052 169.75534516 -468.09625244 166.95892334 C-465.23240598 164.11559023 -462.3742494 161.26655026 -459.515625 158.41796875 C-454.48637532 153.40776018 -449.45223029 148.40251819 -444.41439819 143.40093994 C-443.21927109 142.21247467 -443.21927109 142.21247467 -442 141 C-441.12437408 140.13663025 -440.24874817 139.2732605 -439.34658813 138.38372803 C-436.89031032 135.96231681 -436.89031032 135.96231681 -434.5 132.9375 C-432.15961608 130.18754889 -429.84091652 128.2017103 -427 126 C-424.29046625 123.41649107 -422.07904656 121.11856984 -420 118 C-419.34 118 -418.68 118 -418 118 C-417.505 116.515 -417.505 116.515 -417 115 C-415.38161281 113.28641357 -413.70328319 111.6292274 -412 110 C-410.83066668 108.8360061 -409.66412215 107.66920565 -408.5 106.5 C-392 90 -392 90 -389.85546875 87.86328125 C-387.36479858 85.37451745 -384.89604321 82.86447602 -382.42578125 80.35546875 C-380.72148124 78.63268678 -379.01705072 76.91003392 -377.3125 75.1875 C-376.44560547 74.30384766 -375.57871094 73.42019531 -374.68554688 72.50976562 C-373.44321289 71.25776367 -373.44321289 71.25776367 -372.17578125 69.98046875 C-371.04523315 68.83421021 -371.04523315 68.83421021 -369.8918457 67.66479492 C-368 66 -368 66 -366 66 C-365.6596875 65.1646875 -365.6596875 65.1646875 -365.3125 64.3125 C-363.62449964 61.33840412 -361.53323483 59.27991135 -359 57 C-358.34 57 -357.68 57 -357 57 C-356.72704102 56.40237854 -356.45408203 55.80475708 -356.17285156 55.18902588 C-355.03300132 53.0615941 -353.92785057 51.67459528 -352.234375 49.97558594 C-351.68040039 49.41530701 -351.12642578 48.85502808 -350.55566406 48.277771 C-349.95979492 47.68595032 -349.36392578 47.09412964 -348.75 46.484375 C-348.13608398 45.86854553 -347.52216797 45.25271606 -346.88964844 44.6182251 C-345.59425517 43.32147354 -344.29634356 42.02723343 -342.99609375 40.73535156 C-341.00024932 38.75024798 -339.01533274 36.75466409 -337.03125 34.7578125 C-335.77147445 33.49935789 -334.51107899 32.24152346 -333.25 30.984375 C-332.65413086 30.3844574 -332.05826172 29.78453979 -331.44433594 29.16644287 C-327.22993247 25 -327.22993247 25 -325 25 C-324.67 24.01 -324.34 23.02 -324 22 C-302.21390252 3.51090837 -278.57189337 0.3945835 -250.87353516 0.45410156 C-248.16655146 0.44755717 -245.45960281 0.43503521 -242.75263977 0.42277527 C-236.95686842 0.3996119 -231.16122165 0.39070809 -225.36540604 0.39188385 C-216.98271409 0.39356311 -208.60018667 0.37311642 -200.21753888 0.34752855 C-186.60825009 0.30657675 -172.99899119 0.28316834 -159.38964844 0.27099609 C-146.18812182 0.25915062 -132.98665146 0.23891752 -119.78515625 0.20751953 C-118.96989497 0.20558343 -118.1546337 0.20364733 -117.31466754 0.20165256 C-113.22372178 0.19188616 -109.13277643 0.18195691 -105.04183125 0.17194796 C-34.57436997 0 -34.57436997 0 0 0 Z " fill="#C91D3E" transform="translate(733,262)"/>
<path d="M0 0 C4.13693785 1.90267371 6.97095372 4.69650971 10.14208984 7.89916992 C10.74751114 8.50269287 11.35293243 9.10621582 11.97669983 9.72802734 C13.97636441 11.72398852 15.96873697 13.72705967 17.9609375 15.73046875 C19.35295729 17.12368129 20.74534765 18.51652366 22.13809204 19.90901184 C25.05806084 22.83054506 27.97463961 25.755407 30.88867188 28.68286133 C34.6113051 32.42242898 38.340431 36.15543623 42.07192039 39.88616467 C44.94965531 42.76417259 47.82476792 45.64478823 50.6990242 48.52626991 C52.07225973 49.90267341 53.44608921 51.27848459 54.82053757 52.65367699 C56.74925228 54.58457838 58.67462798 56.51874951 60.59912109 58.45385742 C61.16036179 59.01464493 61.72160248 59.57543243 62.29985046 60.1532135 C63.8856166 61.7516792 65.44758146 63.36916078 67 65 C67.5826424 65.6012652 68.16528481 66.2025304 68.76558304 66.82201576 C69.60558413 67.73138925 69.60558413 67.73138925 70.46255493 68.65913391 C70.97327356 69.20334645 71.4839922 69.74755899 72.01018715 70.30826283 C73 72 73 72 72.95320797 73.89163876 C71.59423916 76.8974856 69.6215496 78.74645935 67.28611755 81.074646 C66.79115329 81.57217353 66.29618903 82.06970107 65.78622586 82.58230519 C64.12421758 84.24925878 62.45170639 85.90525693 60.77905273 87.56152344 C59.58615791 88.75357215 58.39392308 89.94628164 57.20230103 91.13960266 C53.96327984 94.37948585 50.71508109 97.61002542 47.46518588 100.83899593 C44.07121853 104.2142308 40.68572457 107.5979427 37.29933167 110.98077393 C30.88444118 117.38633388 24.46194052 123.78420705 18.03668696 130.17937016 C10.7225562 137.45998833 3.41692516 144.74910984 -3.88799584 152.03896666 C-18.91587608 167.03547503 -33.95442597 182.02124476 -49 197 C-47.51291526 200.11158135 -46.00342589 202.24121617 -43.54760742 204.67944336 C-42.84314987 205.38374985 -42.13869232 206.08805634 -41.41288757 206.81370544 C-40.65143936 207.56483109 -39.88999115 208.31595673 -39.10546875 209.08984375 C-38.3210994 209.87138321 -37.53673004 210.65292267 -36.72859192 211.45814514 C-34.21955151 213.95599818 -31.70366023 216.44682109 -29.1875 218.9375 C-27.50409855 220.61086676 -25.82115052 222.28468979 -24.13867188 223.95898438 C-21.04211176 227.03921921 -17.94297882 230.11681214 -14.84057617 233.19116211 C-13.84566666 234.18102615 -13.84566666 234.18102615 -12.83065796 235.19088745 C-11.68789409 236.32020188 -10.5371467 237.4415613 -9.37466431 238.55056763 C-8.21473021 239.66501412 -7.10090777 240.82720839 -6 242 C-6 242.66 -6 243.32 -6 244 C-5.4225 244.2475 -4.845 244.495 -4.25 244.75 C-1.67060021 246.18299988 0.06121592 247.78424676 2 250 C2 250.66 2 251.32 2 252 C2.99 252.33 3.98 252.66 5 253 C6.578125 254.6015625 6.578125 254.6015625 8.25 256.625 C10.54053463 259.35343096 12.85281042 261.80860666 15.5 264.1875 C22.25651814 270.85250774 27.08597787 280.527407 28 290 C28.08121094 290.83789062 28.16242188 291.67578125 28.24609375 292.5390625 C28.83397466 304.90237622 24.29356025 315.67357022 16.32367706 324.95143318 C14.52717955 326.8510199 12.69284639 328.70170895 10.83300781 330.53930664 C10.14284073 331.23312439 9.45267365 331.92694214 8.74159241 332.64178467 C6.48606819 334.90533627 4.21998485 337.15796156 1.953125 339.41015625 C0.37414279 340.98861931 -1.20432009 342.56760203 -2.7822876 344.14707947 C-6.07590822 347.44061075 -9.37460261 350.72894491 -12.67724609 354.01342773 C-16.91846617 358.23184061 -21.14839271 362.46136896 -25.37485886 366.69455814 C-28.62571134 369.94874235 -31.88151159 373.19793785 -35.13895416 376.44552422 C-36.70166813 378.0043812 -38.26302647 379.56459836 -39.82302094 381.12617683 C-41.99398669 383.29751139 -44.17130128 385.46226344 -46.35058594 387.62524414 C-46.99787155 388.27500717 -47.64515717 388.9247702 -48.3120575 389.59422302 C-52.7712468 394 -52.7712468 394 -55 394 C-55.2578125 394.58265625 -55.515625 395.1653125 -55.78125 395.765625 C-57.09834017 398.1802903 -58.55088384 399.81740177 -60.5 401.75 C-61.1084375 402.36359375 -61.716875 402.9771875 -62.34375 403.609375 C-64 405 -64 405 -66 405 C-66.21317871 405.53915039 -66.42635742 406.07830078 -66.64599609 406.63378906 C-68.49498827 409.86502458 -71.02795629 412.27398693 -73.6640625 414.859375 C-74.21613373 415.40861633 -74.76820496 415.95785767 -75.33700562 416.52374268 C-77.09501815 418.27059293 -78.8598689 420.01034601 -80.625 421.75 C-81.8207708 422.93573591 -83.01608865 424.1219288 -84.2109375 425.30859375 C-87.13540253 428.21105085 -90.06601874 431.1071641 -93 434 C-93.95253662 433.04637573 -93.95253662 433.04637573 -94.92431641 432.07348633 C-98.15755401 428.84017796 -101.39821276 425.6143311 -104.63803101 422.38761902 C-107.78853919 419.24875115 -110.93716532 416.10800015 -114.08518028 412.96663189 C-116.46529034 410.59173365 -118.84632703 408.21778006 -121.22949219 405.84594727 C-123.99653765 403.09109669 -126.76028322 400.33297156 -129.5234375 397.57421875 C-130.36844818 396.73436935 -131.21345886 395.89451996 -132.08407593 395.02922058 C-136.38270529 390.73099496 -140.51401941 386.3594909 -144.47753906 381.75053406 C-146.48613406 379.44104035 -148.60728755 377.26316653 -150.76953125 375.09765625 C-151.59517578 374.27072266 -152.42082031 373.44378906 -153.27148438 372.59179688 C-154.52928711 371.33979492 -154.52928711 371.33979492 -155.8125 370.0625 C-156.67037109 369.20076172 -157.52824219 368.33902344 -158.41210938 367.45117188 C-159.23130859 366.63326172 -160.05050781 365.81535156 -160.89453125 364.97265625 C-161.63550049 364.23281494 -162.37646973 363.49297363 -163.13989258 362.73071289 C-164.8940907 360.93551332 -164.8940907 360.93551332 -167 360 C-166.34 358.35 -165.68 356.7 -165 355 C-164.34 355 -163.68 355 -163 355 C-162.6767424 354.18876678 -162.6767424 354.18876678 -162.34695435 353.36114502 C-160.5251144 350.16754879 -158.04475553 347.78282336 -155.44873047 345.22167969 C-154.88273132 344.65538849 -154.31673218 344.08909729 -153.73358154 343.50564575 C-151.8661528 341.63960762 -149.99174538 339.78074904 -148.1171875 337.921875 C-146.81923589 336.62765446 -145.52172584 335.33299095 -144.22463989 334.03790283 C-140.81285164 330.63374354 -137.39509948 327.23563366 -133.97607422 323.83874512 C-130.4869408 320.37008593 -127.00347613 316.89574417 -123.51953125 313.421875 C-116.68522632 306.60900698 -109.84460797 299.8025158 -103 293 C-103.495 292.38125 -103.99 291.7625 -104.5 291.125 C-106 289 -106 289 -106 287 C-106.59762146 286.72704102 -107.19524292 286.45408203 -107.81097412 286.17285156 C-109.9384059 285.03300132 -111.32540472 283.92785057 -113.02441406 282.234375 C-113.58469299 281.68040039 -114.14497192 281.12642578 -114.722229 280.55566406 C-115.31404968 279.95979492 -115.90587036 279.36392578 -116.515625 278.75 C-117.13145447 278.13608398 -117.74728394 277.52216797 -118.3817749 276.88964844 C-119.67852646 275.59425517 -120.97276657 274.29634356 -122.26464844 272.99609375 C-124.24975202 271.00024932 -126.24533591 269.01533274 -128.2421875 267.03125 C-129.50064211 265.77147445 -130.75847654 264.51107899 -132.015625 263.25 C-132.6155426 262.65413086 -133.21546021 262.05826172 -133.83355713 261.44433594 C-138 257.22993247 -138 257.22993247 -138 255 C-138.5686377 254.75471558 -139.13727539 254.50943115 -139.72314453 254.25671387 C-142.4003922 252.77900291 -144.24715794 251.03592756 -146.4296875 248.89257812 C-147.73123779 247.61985046 -147.73123779 247.61985046 -149.05908203 246.32141113 C-150.45296143 244.94028137 -150.45296143 244.94028137 -151.875 243.53125 C-152.35177185 243.0601329 -152.8285437 242.58901581 -153.31976318 242.10362244 C-155.84559006 239.60773498 -158.36563204 237.10617676 -160.88085938 234.59960938 C-163.46296708 232.0284308 -166.06306638 229.47631151 -168.6680603 226.92835236 C-170.68243599 224.95149016 -172.68301223 222.96107828 -174.68023682 220.96690369 C-176.09098416 219.56505136 -177.51580336 218.1774053 -178.94091797 216.79016113 C-184.20902298 211.48561473 -188.42974985 206.47789617 -190 199 C-189.55617095 189.92562568 -184.04426494 183.34576034 -178 177 C-176.23455793 175.42986714 -174.43122077 173.92116805 -172.60546875 172.421875 C-170.44647497 170.50977345 -168.78900214 168.25281751 -167 166 C-166.34 166 -165.68 166 -165 166 C-164.67 165.01 -164.34 164.02 -164 163 C-163.34 163 -162.68 163 -162 163 C-162 162.34 -162 161.68 -162 161 C-160.000181 159.10731416 -157.87936015 157.40114234 -155.75 155.65625 C-154.88375 154.83640625 -154.88375 154.83640625 -154 154 C-154 153.34 -154 152.68 -154 152 C-152.3214487 150.50370821 -150.58041102 149.07707339 -148.8125 147.6875 C-144.95011974 144.64206228 -141.45559096 141.49645163 -138 138 C-92 92 -46 46 0 0 Z " fill="#0B3A5C" transform="translate(730,351)"/>
<path d="M0 0 C5.3944922 0.79918403 8.57236693 4.42858586 11.94165039 8.41992188 C16.89421163 14.12113827 22.27125476 19.39555418 27.62109375 24.71875 C28.73232123 25.82810833 29.84332512 26.93769067 30.95411682 28.04748535 C33.85344371 30.94302616 36.75576272 33.83554907 39.65875244 36.72741699 C42.63046306 39.68882864 45.59928267 42.65313554 48.56835938 45.6171875 C54.3761082 51.4142681 60.18702673 57.2081582 66 63 C65.67 63.99 65.34 64.98 65 66 C56.52212992 57.54524852 48.04692399 49.08783661 39.57515717 40.62696934 C35.64175692 36.69879898 31.70742722 32.77156883 27.77099609 28.84643555 C23.9757674 25.06203199 20.18295074 21.27522678 16.39183044 17.48670769 C14.9413458 16.03807797 13.48997797 14.59033203 12.03773499 13.14346504 C10.01177908 11.1247146 7.98891984 9.10291099 5.96679688 7.08032227 C5.35899887 6.47611954 4.75120087 5.87191681 4.12498474 5.24940491 C0 1.11405216 0 1.11405216 0 0 Z " fill="#CB1933" transform="translate(377,526)"/>
<path d="M0 0 C0.99 0.33 1.98 0.66 3 1 C-4.33333333 8.33333333 -11.66666667 15.66666667 -19 23 C-19.76739502 23.76812012 -20.53479004 24.53624023 -21.32543945 25.32763672 C-23.89673163 27.89681647 -26.47482277 30.45896299 -29.0546875 33.01953125 C-30.50088274 34.45834458 -31.94659145 35.89764481 -33.39208984 37.3371582 C-34.376212 38.31625767 -35.36123062 39.29445695 -36.34716797 40.27172852 C-41.61713033 45.49679144 -46.79939648 50.68308972 -51.37158203 56.5456543 C-53.47409069 58.42341203 -55.24464964 58.65361143 -58 59 C-52.4416326 52.22284035 -46.24368339 46.11649647 -40.0390625 39.94140625 C-38.88156574 38.78577771 -37.72429189 37.62992586 -36.56723022 36.47386169 C-33.54129782 33.45172262 -30.51237303 30.43260047 -27.48278809 27.41412354 C-24.38382705 24.32544553 -21.28774287 21.23388665 -18.19140625 18.14257812 C-12.13039606 12.09224902 -6.06621753 6.04510807 0 0 Z " fill="#13334E" transform="translate(662,419)"/>
<path d="M0 0 C3.57258906 0.57824532 5.21102884 1.85436225 7.71484375 4.421875 C8.74448242 5.46601562 8.74448242 5.46601562 9.79492188 6.53125 C10.50197266 7.2634375 11.20902344 7.995625 11.9375 8.75 C12.64068359 9.46671875 13.34386719 10.1834375 14.06835938 10.921875 C15.43379505 12.31418429 16.7951259 13.71053384 18.15185547 15.11132812 C19.74210034 16.73644495 21.36352576 18.31669177 23.00390625 19.890625 C25 22 25 22 25 24 C25.5775 24.2475 26.155 24.495 26.75 24.75 C29.32939979 26.18299988 31.06121592 27.78424676 33 30 C33 30.66 33 31.32 33 32 C33.99 32.33 34.98 32.66 36 33 C37.578125 34.6015625 37.578125 34.6015625 39.25 36.625 C41.54053463 39.35343096 43.85281042 41.80860666 46.5 44.1875 C51.64310082 49.27228902 56.23405081 56.41798252 57.4375 63.6171875 C57.4375 65.8125 57.4375 65.8125 57 69 C55.31795245 65.78951655 54.0054439 62.49927983 52.6875 59.125 C50.68404904 54.23562564 48.55227021 50.85675051 45 47 C45 46.34 45 45.68 45 45 C44.01 44.67 43.02 44.34 42 44 C39.3125 41.5625 39.3125 41.5625 37 39 C37 38.34 37 37.68 37 37 C36.1181604 36.6138855 36.1181604 36.6138855 35.21850586 36.2199707 C32.80961563 34.8953064 31.35685783 33.50198835 29.50390625 31.48046875 C28.86259766 30.78759766 28.22128906 30.09472656 27.56054688 29.38085938 C26.90119141 28.65705078 26.24183594 27.93324219 25.5625 27.1875 C24.25203812 25.76364515 22.94085545 24.34045329 21.62890625 22.91796875 C21.00153564 22.23686035 20.37416504 21.55575195 19.7277832 20.85400391 C17.54226939 18.50883054 15.28660193 16.24654998 13 14 C10.72642358 11.75275978 8.45678317 9.50157416 6.1875 7.25 C5.2912793 6.36634766 5.2912793 6.36634766 4.37695312 5.46484375 C2.89903092 3.99536682 1.44698549 2.49994982 0 1 C0 0.67 0 0.34 0 0 Z " fill="#13314B" transform="translate(699,571)"/>
<path d="M0 0 C0.66 0 1.32 0 2 0 C3.55078125 1.57421875 3.55078125 1.57421875 5.3125 3.6875 C8.05762875 6.96314802 10.97074713 9.99095652 14 13 C15.20351888 14.20273099 16.40661038 15.40588973 17.609375 16.609375 C18.27356445 17.27356445 18.93775391 17.93775391 19.62207031 18.62207031 C44.390625 43.390625 44.390625 43.390625 46.27075195 45.27661133 C47.36036811 46.36253544 48.45696119 47.44154598 49.56323242 48.51049805 C52.04557405 50.9185419 53.60724482 52.46520337 54 56 C53.01 56.495 53.01 56.495 52 57 C50.3372974 54.32521756 49.00016187 52.0004856 48 49 C46.68918496 48.29008017 45.35256589 47.62672781 44 47 C42.45599365 45.70996094 42.45599365 45.70996094 40.97558594 44.234375 C40.41530701 43.68040039 39.85502808 43.12642578 39.277771 42.55566406 C38.68595032 41.95979492 38.09412964 41.36392578 37.484375 40.75 C36.5606308 39.82912598 36.5606308 39.82912598 35.6182251 38.88964844 C34.32147354 37.59425517 33.02723343 36.29634356 31.73535156 34.99609375 C29.75024798 33.00024932 27.75466409 31.01533274 25.7578125 29.03125 C24.49935789 27.77147445 23.24152346 26.51107899 21.984375 25.25 C21.3844574 24.65413086 20.78453979 24.05826172 20.16644287 23.44433594 C16 19.22993247 16 19.22993247 16 17 C15.20335937 16.68869141 15.20335937 16.68869141 14.390625 16.37109375 C11.00278724 14.42806915 8.49082014 11.8197126 5.75 9.0625 C5.19570313 8.52431641 4.64140625 7.98613281 4.0703125 7.43164062 C2.65116761 6.01424346 1.31858496 4.51139692 0 3 C0 2.01 0 1.02 0 0 Z " fill="#18344E" transform="translate(576,589)"/>
<path d="M0 0 C0.99 0.33 1.98 0.66 3 1 C1.37660195 2.70884005 -0.29319053 4.37446717 -2 6 C-2.66 6 -3.32 6 -4 6 C-4.33 6.99 -4.66 7.98 -5 9 C-6.41309029 10.17757524 -7.83017965 11.35076647 -9.26953125 12.49609375 C-11.14336325 14.12459335 -12.70187039 15.86154617 -14.3125 17.75 C-18.28233581 22.3932901 -22.40909237 26.96074929 -27 31 C-27.66 31 -28.32 31 -29 31 C-29 31.66 -29 32.32 -29 33 C-30.98 33.495 -30.98 33.495 -33 34 C-33 33.34 -33 32.68 -33 32 C-32.34 32 -31.68 32 -31 32 C-30.67 31.01 -30.34 30.02 -30 29 C-29.34 29 -28.68 29 -28 29 C-28 28.34 -28 27.68 -28 27 C-26.000181 25.10731416 -23.87936015 23.40114234 -21.75 21.65625 C-20.88375 20.83640625 -20.88375 20.83640625 -20 20 C-20 19.34 -20 18.68 -20 18 C-18.3214487 16.50370821 -16.58041102 15.07707339 -14.8125 13.6875 C-10.95763425 10.64798738 -7.41889617 7.52427311 -4 4 C-2.66666667 2.66666667 -1.33333333 1.33333333 0 0 Z " fill="#183854" transform="translate(596,485)"/>
<path d="M0 0 C0.99 0.33 1.98 0.66 3 1 C-5.2095968 10.5344885 -5.2095968 10.5344885 -9 14 C-9.66 14 -10.32 14 -11 14 C-11.33 14.99 -11.66 15.98 -12 17 C-12.66 17 -13.32 17 -14 17 C-14.33 17.99 -14.66 18.98 -15 20 C-17.4375 21.75 -17.4375 21.75 -20 23 C-20.66 22.67 -21.32 22.34 -22 22 C-14.74 14.74 -7.48 7.48 0 0 Z " fill="#173855" transform="translate(614,657)"/>
<path d="M0 0 C1.32 0.66 2.64 1.32 4 2 C-0.75 6 -0.75 6 -3 6 C-3.26167969 6.60070312 -3.52335938 7.20140625 -3.79296875 7.8203125 C-5.07422799 10.13404277 -6.24807082 11.2545833 -8.3125 12.875 C-10.77467654 14.88577751 -12.83786807 16.88320257 -14.8125 19.375 C-15.534375 20.24125 -16.25625 21.1075 -17 22 C-17.66 22 -18.32 22 -19 22 C-18.44387545 18.11863416 -16.72326862 16.37243082 -13.96484375 13.671875 C-12.75151367 12.47304688 -12.75151367 12.47304688 -11.51367188 11.25 C-10.66353516 10.425 -9.81339844 9.6 -8.9375 8.75 C-8.08349609 7.90953125 -7.22949219 7.0690625 -6.34960938 6.203125 C-4.23964588 4.12852403 -2.12300292 2.06124168 0 0 Z " fill="#153652" transform="translate(730,351)"/>
<path d="M0 0 C0.66 0 1.32 0 2 0 C2.94975799 1.4193488 3.89434183 2.84250236 4.80908203 4.28466797 C6.84029624 7.21031599 9.38570282 9.59353269 11.9375 12.0625 C12.44990234 12.56587891 12.96230469 13.06925781 13.49023438 13.58789062 C14.5032476 14.58288328 15.51778083 15.5763311 16.53393555 16.56811523 C23.32988166 23.2056213 23.32988166 23.2056213 26 27 C19.89264255 26.16384248 15.99884582 20.46842666 11.875 16.3125 C10.95589844 15.41337891 10.03679688 14.51425781 9.08984375 13.58789062 C8.21199219 12.70939453 7.33414063 11.83089844 6.4296875 10.92578125 C5.62772949 10.12567627 4.82577148 9.32557129 3.99951172 8.5012207 C1.80173228 5.75198378 0.90738423 3.37803036 0 0 Z " fill="#1D344C" transform="translate(542,554)"/>
<path d="M0 0 C0.66 0 1.32 0 2 0 C2.90158957 12.49703317 -0.32366445 23.09752714 -8 33 C-8.33 32.01 -8.66 31.02 -9 30 C-8.109375 28.34375 -8.109375 28.34375 -6.75 26.5 C-1.49432321 18.5142911 -0.52514661 9.36209645 0 0 Z " fill="#183047" transform="translate(756,641)"/>
<path d="M0 0 C3.9020691 1.59812094 6.38838883 4.12995226 9.3515625 7.0859375 C9.8516684 7.58412994 10.35177429 8.08232239 10.86703491 8.59561157 C11.92000159 9.64722104 12.97046195 10.70134532 14.01855469 11.7578125 C15.61958034 13.3695441 17.23098798 14.97033457 18.84375 16.5703125 C19.86782936 17.59571354 20.8912881 18.62173484 21.9140625 19.6484375 C22.8417041 20.57833496 23.7693457 21.50823242 24.72509766 22.46630859 C26.66977245 24.63220632 27.90787739 26.33340714 29 29 C26.37812506 27.95125002 25.20628639 27.35068687 23.75 24.875 C23.5025 24.25625 23.255 23.6375 23 23 C22.34 23 21.68 23 21 23 C19.765625 21.7421875 19.765625 21.7421875 18.25 19.875 C13.99734614 14.84254181 9.32411756 10.2705547 4.62402344 5.66162109 C4.02750977 5.0733252 3.43099609 4.4850293 2.81640625 3.87890625 C2.27443604 3.3485376 1.73246582 2.81816895 1.17407227 2.27172852 C0 1 0 1 0 0 Z " fill="#DA1637" transform="translate(564,712)"/>
<path d="M0 0 C0.33 0.66 0.66 1.32 1 2 C1.60489258 2.2995459 2.20978516 2.5990918 2.83300781 2.90771484 C5.26736538 4.13476709 6.76445509 5.53625604 8.671875 7.4765625 C9.33574219 8.146875 9.99960937 8.8171875 10.68359375 9.5078125 C11.36550781 10.20648437 12.04742188 10.90515625 12.75 11.625 C13.44738281 12.33140625 14.14476562 13.0378125 14.86328125 13.765625 C16.58012488 15.50598703 18.29211832 17.25084981 20 19 C19.67 19.99 19.34 20.98 19 22 C15.82124353 18.90800969 12.65917254 15.79948718 9.5 12.6875 C8.59378906 11.80642578 7.68757812 10.92535156 6.75390625 10.01757812 C5.89667969 9.17001953 5.03945313 8.32246094 4.15625 7.44921875 C3.36025391 6.66893311 2.56425781 5.88864746 1.74414062 5.0847168 C0 3 0 3 0 0 Z " fill="#12304B" transform="translate(678,548)"/>
<path d="M0 0 C0.33 0.66 0.66 1.32 1 2 C-0.61594832 4.04119788 -2.2856382 6.04072937 -4 8 C-4.66 8 -5.32 8 -6 8 C-6.226875 8.5775 -6.45375 9.155 -6.6875 9.75 C-8 12 -8 12 -10.3125 13.75 C-13.80513935 16.67407015 -15.76233922 20.07695217 -18 24 C-18.65625 22.2421875 -18.65625 22.2421875 -19 20 C-16.4086725 14.83824281 -12.03512008 10.96173609 -7.60546875 7.3828125 C-5.41922104 5.49976703 -3.7571967 3.27784757 -2 1 C-1.34 0.67 -0.68 0.34 0 0 Z " fill="#18334C" transform="translate(562,519)"/>
<path d="M0 0 C5.14393438 0.87604123 7.5989374 4.29905877 11 8 C11.58910156 8.63164062 12.17820312 9.26328125 12.78515625 9.9140625 C17 14.59722222 17 14.59722222 17 18 C13.54393049 16.84797683 13.15431168 15.78701911 11.30859375 12.828125 C8.41390938 8.78420774 4.48472254 4.24236127 0 2 C0 1.34 0 0.68 0 0 Z " fill="#16354E" transform="translate(786,408)"/>
<path d="M0 0 C3.76543194 0.54619452 5.18817536 1.97481823 7.5625 4.875 C9.62391463 7.36338916 11.67537129 9.75309443 14 12 C13.67 12.99 13.34 13.98 13 15 C10.82722286 12.88094537 8.66173092 10.75527122 6.5 8.625 C5.87996094 8.02171875 5.25992187 7.4184375 4.62109375 6.796875 C4.03457031 6.21679688 3.44804687 5.63671875 2.84375 5.0390625 C2.29912109 4.50490723 1.75449219 3.97075195 1.19335938 3.42041016 C0 2 0 2 0 0 Z " fill="#CD122E" transform="translate(362,510)"/>
<path d="M0 0 C1 3 1 3 0 6 C-1.7421875 7.640625 -1.7421875 7.640625 -3.875 9.25 C-4.57367187 9.79140625 -5.27234375 10.3328125 -5.9921875 10.890625 C-6.65476562 11.25671875 -7.31734375 11.6228125 -8 12 C-8.99 11.67 -9.98 11.34 -11 11 C-7.37 7.37 -3.74 3.74 0 0 Z " fill="#163652" transform="translate(678,403)"/>
<path d="M0 0 C0.99 0.33 1.98 0.66 3 1 C-0.96 4.96 -4.92 8.92 -9 13 C-9.33 12.01 -9.66 11.02 -10 10 C-6.7 6.7 -3.4 3.4 0 0 Z " fill="#15324D" transform="translate(694,387)"/>
<path d="M0 0 C0 3 0 3 -1.19335938 4.53393555 C-1.73798828 5.062854 -2.28261719 5.59177246 -2.84375 6.13671875 C-3.72353516 7.00200195 -3.72353516 7.00200195 -4.62109375 7.88476562 C-5.24113281 8.47966797 -5.86117188 9.07457031 -6.5 9.6875 C-7.12003906 10.29400391 -7.74007813 10.90050781 -8.37890625 11.52539062 C-9.91264707 13.02373743 -11.45548198 14.51276493 -13 16 C-13 13 -13 13 -11.64453125 11.3515625 C-11.03996094 10.78179687 -10.43539063 10.21203125 -9.8125 9.625 C-9.17699219 9.0165625 -8.54148437 8.408125 -7.88671875 7.78125 C-6.95279297 6.89953125 -6.95279297 6.89953125 -6 6 C-5.03802054 5.04532672 -4.0791271 4.08752118 -3.125 3.125 C-2.08333333 2.08333333 -1.04166667 1.04166667 0 0 Z " fill="#CF0D2C" transform="translate(335,360)"/>
<path d="M0 0 C0.33 0.99 0.66 1.98 1 3 C-0.21484375 4.82421875 -0.21484375 4.82421875 -1.9375 6.6875 C-2.50339844 7.31011719 -3.06929687 7.93273437 -3.65234375 8.57421875 C-4.09707031 9.04472656 -4.54179688 9.51523437 -5 10 C-5.99 9.34 -6.98 8.68 -8 8 C-5.36 5.36 -2.72 2.72 0 0 Z " fill="#1A3A56" transform="translate(587,684)"/>
<path d="M0 0 C0 3 0 3 -1.2421875 4.60546875 C-1.78101563 5.12753906 -2.31984375 5.64960937 -2.875 6.1875 C-3.40867187 6.71730469 -3.94234375 7.24710938 -4.4921875 7.79296875 C-6 9 -6 9 -8 9 C-7.45712148 5.19985035 -5.88535357 3.46103687 -3 1 C-2.01 0.67 -1.02 0.34 0 0 Z " fill="#113552" transform="translate(626,647)"/>
<path d="M0 0 C1.32 0.66 2.64 1.32 4 2 C0.71195019 4.91227269 -1.59885603 6.49701212 -6 7 C-4.02 4.69 -2.04 2.38 0 0 Z " fill="#213B56" transform="translate(730,351)"/>
<path d="M0 0 C0.99 0.33 1.98 0.66 3 1 C0.36 3.64 -2.28 6.28 -5 9 C-5.33 8.01 -5.66 7.02 -6 6 C-4.02 4.02 -2.04 2.04 0 0 Z " fill="#1B3851" transform="translate(719,699)"/>
<path d="M0 0 C3 0 3 0 4.60546875 1.42578125 C5.12753906 2.04839844 5.64960937 2.67101562 6.1875 3.3125 C6.71730469 3.92738281 7.24710938 4.54226563 7.79296875 5.17578125 C9 7 9 7 9 10 C4.9688217 8.6562739 4.19869403 6.54628069 2 3 C1.34 2.01 0.68 1.02 0 0 Z " fill="#132F46" transform="translate(794,416)"/>
<path d="M0 0 C0.99 0.33 1.98 0.66 3 1 C0.36 3.64 -2.28 6.28 -5 9 C-5.66 8.67 -6.32 8.34 -7 8 C-6.54625 7.5875 -6.0925 7.175 -5.625 6.75 C-3.9085616 5.06583565 -3.9085616 5.06583565 -2.9375 2.875 C-2 1 -2 1 0 0 Z " fill="#CD1531" transform="translate(411,283)"/>
<path d="M0 0 C2.9297008 2.82506863 5.50174717 5.78796065 8 9 C5.6875 8.8125 5.6875 8.8125 3 8 C0.79029126 5.10451959 0 3.66842255 0 0 Z " fill="#C71631" transform="translate(234,520)"/>
<path d="M0 0 C0.33 0.66 0.66 1.32 1 2 C-0.98 4.31 -2.96 6.62 -5 9 C-5.99 8.67 -6.98 8.34 -8 8 C-5.36 5.36 -2.72 2.72 0 0 Z " fill="#CD1332" transform="translate(388,307)"/>
<path d="M0 0 C0.99 0 1.98 0 3 0 C4.38671875 1.53125 4.38671875 1.53125 5.6875 3.5 C6.12449219 4.1496875 6.56148438 4.799375 7.01171875 5.46875 C7.33785156 5.9740625 7.66398437 6.479375 8 7 C5 7 5 7 2.3125 4.625 C0 2 0 2 0 0 Z " fill="#CC1530" transform="translate(354,502)"/>
<path d="M0 0 C0.99 0.33 1.98 0.66 3 1 C1.37660195 2.70884005 -0.29319053 4.37446717 -2 6 C-2.66 6 -3.32 6 -4 6 C-4 6.66 -4 7.32 -4 8 C-4.66 7.67 -5.32 7.34 -6 7 C-4.02 4.69 -2.04 2.38 0 0 Z " fill="#10304C" transform="translate(596,485)"/>
<path d="M0 0 C0.33 0.99 0.66 1.98 1 3 C-0.65 4.65 -2.3 6.3 -4 8 C-4.66 7.34 -5.32 6.68 -6 6 C-4.02 4.02 -2.04 2.04 0 0 Z " fill="#1B3956" transform="translate(706,375)"/>
<path d="M0 0 C0 3 0 3 -1.3125 4.38671875 C-2.875 5.59114583 -4.4375 6.79557292 -6 8 C-5.65120368 4.74456771 -4.97866739 3.98126893 -2.4375 1.75 C-1.633125 1.1725 -0.82875 0.595 0 0 Z " fill="#CC122E" transform="translate(293,402)"/>
<path d="M0 0 C0.66 0 1.32 0 2 0 C0.68775452 3.93673644 -0.91910327 6.22719294 -4 9 C-3.35494404 5.51669784 -2.01782732 2.90567134 0 0 Z " fill="#19364E" transform="translate(751,665)"/>
<path d="M0 0 C0.33 0 0.66 0 1 0 C1 2.31 1 4.62 1 7 C0.67 7 0.34 7 0 7 C0 4.69 0 2.38 0 0 Z " fill="#BA3850" transform="translate(224,493)"/>
<path d="M0 0 C0.66 0.66 1.32 1.32 2 2 C1.01 1.67 0.02 1.34 -1 1 C-0.67 0.67 -0.34 0.34 0 0 Z " fill="#C0354C" transform="translate(417,710)"/>
<path d="M0 0 C0.33 0.99 0.66 1.98 1 3 C0.34 2.67 -0.32 2.34 -1 2 C-0.67 1.34 -0.34 0.68 0 0 Z " fill="#204460" transform="translate(625,642)"/>
<path d="M0 0 C1 4 1 4 1 4 Z " fill="#BB3953" transform="translate(224,488)"/>
<path d="" fill="#B8384D" transform="translate(0,0)"/>
<path d="M0 0 C0.99 0.495 0.99 0.495 2 1 C1.01 1.495 1.01 1.495 0 2 C0 1.34 0 0.68 0 0 Z " fill="#214663" transform="translate(612,630)"/>
<path d="M0 0 C0.66 0 1.32 0 2 0 C1.67 0.66 1.34 1.32 1 2 C0.67 1.34 0.34 0.68 0 0 Z " fill="#B8364F" transform="translate(224,484)"/>
<path d="M0 0 C0.99 0.495 0.99 0.495 2 1 C1.01 1.495 1.01 1.495 0 2 C0 1.34 0 0.68 0 0 Z " fill="#2C4C69" transform="translate(616,457)"/>
<path d="" fill="#314A65" transform="translate(0,0)"/>
<path d="M0 0 C3 1 3 1 3 1 Z " fill="#BA3A54" transform="translate(599,373)"/>
<path d="" fill="#5B475E" transform="translate(0,0)"/>
<path d="" fill="#244662" transform="translate(0,0)"/>
<path d="" fill="#224561" transform="translate(0,0)"/>
<path d="" fill="#2F4963" transform="translate(0,0)"/>
<path d="" fill="#344C65" transform="translate(0,0)"/>
<path d="" fill="#3E4D64" transform="translate(0,0)"/>
<path d="" fill="#455267" transform="translate(0,0)"/>
<path d="" fill="#214562" transform="translate(0,0)"/>
<path d="" fill="#21425E" transform="translate(0,0)"/>
<path d="M0 0 C2 1 2 1 2 1 Z " fill="#264968" transform="translate(601,477)"/>
<path d="M0 0 C2 1 2 1 2 1 Z " fill="#2A4B69" transform="translate(601,472)"/>
<path d="M0 0 C2 1 2 1 2 1 Z " fill="#274967" transform="translate(617,461)"/>
<path d="M0 0 C2 1 2 1 2 1 Z " fill="#BB3C53" transform="translate(232,459)"/>
<path d="M0 0 C2 1 2 1 2 1 Z " fill="#324A64" transform="translate(664,411)"/>
<path d="M0 0 C2 1 2 1 2 1 Z " fill="#B63B54" transform="translate(607,373)"/>
<path d="M0 0 C2 1 2 1 2 1 Z " fill="#C33550" transform="translate(561,373)"/>
<path d="M0 0 C2 1 2 1 2 1 Z " fill="#C4334E" transform="translate(489,373)"/>
<path d="M0 0 C2 1 2 1 2 1 Z " fill="#B63852" transform="translate(694,301)"/>
<path d="" fill="#3C3939" transform="translate(0,0)"/>
<path d="" fill="#B73B4E" transform="translate(0,0)"/>
<path d="" fill="#B83950" transform="translate(0,0)"/>
<path d="" fill="#B5394D" transform="translate(0,0)"/>
<path d="" fill="#BA384E" transform="translate(0,0)"/>
<path d="" fill="#BC384E" transform="translate(0,0)"/>
<path d="" fill="#BC354B" transform="translate(0,0)"/>
<path d="" fill="#BD364D" transform="translate(0,0)"/>
<path d="" fill="#AF3B50" transform="translate(0,0)"/>
<path d="" fill="#BF354D" transform="translate(0,0)"/>
<path d="" fill="#9F3C52" transform="translate(0,0)"/>
<path d="" fill="#BE364D" transform="translate(0,0)"/>
<path d="" fill="#C1374D" transform="translate(0,0)"/>
<path d="" fill="#BE374C" transform="translate(0,0)"/>
<path d="" fill="#BF354C" transform="translate(0,0)"/>
<path d="" fill="#C1364C" transform="translate(0,0)"/>
<path d="" fill="#354359" transform="translate(0,0)"/>
<path d="" fill="#2C455E" transform="translate(0,0)"/>
<path d="" fill="#2C445D" transform="translate(0,0)"/>
<path d="" fill="#BF364D" transform="translate(0,0)"/>
<path d="" fill="#2B425C" transform="translate(0,0)"/>
<path d="" fill="#BF364D" transform="translate(0,0)"/>
<path d="" fill="#BF344D" transform="translate(0,0)"/>
<path d="" fill="#C2364D" transform="translate(0,0)"/>
<path d="" fill="#29425D" transform="translate(0,0)"/>
<path d="" fill="#C2344D" transform="translate(0,0)"/>
<path d="" fill="#BF374E" transform="translate(0,0)"/>
<path d="" fill="#BF364E" transform="translate(0,0)"/>
<path d="" fill="#29445D" transform="translate(0,0)"/>
<path d="" fill="#C0344D" transform="translate(0,0)"/>
<path d="" fill="#C1364E" transform="translate(0,0)"/>
<path d="" fill="#27435E" transform="translate(0,0)"/>
<path d="" fill="#26435C" transform="translate(0,0)"/>
<path d="" fill="#264660" transform="translate(0,0)"/>
<path d="" fill="#C4354D" transform="translate(0,0)"/>
<path d="" fill="#78415B" transform="translate(0,0)"/>
<path d="" fill="#81435D" transform="translate(0,0)"/>
<path d="" fill="#7D445F" transform="translate(0,0)"/>
<path d="" fill="#86465C" transform="translate(0,0)"/>
<path d="" fill="#2A4561" transform="translate(0,0)"/>
<path d="" fill="#924157" transform="translate(0,0)"/>
<path d="" fill="#BD3950" transform="translate(0,0)"/>
<path d="" fill="#58455F" transform="translate(0,0)"/>
<path d="" fill="#584760" transform="translate(0,0)"/>
<path d="" fill="#5D495D" transform="translate(0,0)"/>
<path d="" fill="#B13B55" transform="translate(0,0)"/>
<path d="" fill="#C0374D" transform="translate(0,0)"/>
<path d="" fill="#BF3A4F" transform="translate(0,0)"/>
<path d="" fill="#3E495E" transform="translate(0,0)"/>
<path d="" fill="#3E4B61" transform="translate(0,0)"/>
<path d="" fill="#3E4962" transform="translate(0,0)"/>
<path d="" fill="#3B4763" transform="translate(0,0)"/>
<path d="" fill="#404B65" transform="translate(0,0)"/>
<path d="" fill="#274360" transform="translate(0,0)"/>
<path d="" fill="#BF3950" transform="translate(0,0)"/>
<path d="" fill="#AA3951" transform="translate(0,0)"/>
<path d="" fill="#BF364E" transform="translate(0,0)"/>
<path d="" fill="#2B4965" transform="translate(0,0)"/>
<path d="" fill="#2D4A66" transform="translate(0,0)"/>
<path d="" fill="#BF374F" transform="translate(0,0)"/>
<path d="" fill="#B13D52" transform="translate(0,0)"/>
<path d="" fill="#C3364C" transform="translate(0,0)"/>
<path d="" fill="#274762" transform="translate(0,0)"/>
<path d="" fill="#234564" transform="translate(0,0)"/>
<path d="" fill="#B13B52" transform="translate(0,0)"/>
<path d="" fill="#25435E" transform="translate(0,0)"/>
<path d="" fill="#C03A53" transform="translate(0,0)"/>
<path d="" fill="#234461" transform="translate(0,0)"/>
<path d="" fill="#C0354D" transform="translate(0,0)"/>
<path d="" fill="#234762" transform="translate(0,0)"/>
<path d="" fill="#1C425E" transform="translate(0,0)"/>
<path d="" fill="#244561" transform="translate(0,0)"/>
<path d="" fill="#234763" transform="translate(0,0)"/>
<path d="" fill="#224562" transform="translate(0,0)"/>
<path d="" fill="#214562" transform="translate(0,0)"/>
<path d="" fill="#BF364D" transform="translate(0,0)"/>
<path d="" fill="#C0364C" transform="translate(0,0)"/>
<path d="" fill="#254663" transform="translate(0,0)"/>
<path d="" fill="#BF3952" transform="translate(0,0)"/>
<path d="" fill="#224462" transform="translate(0,0)"/>
<path d="" fill="#C0364B" transform="translate(0,0)"/>
<path d="" fill="#234663" transform="translate(0,0)"/>
<path d="" fill="#214564" transform="translate(0,0)"/>
<path d="" fill="#234662" transform="translate(0,0)"/>
<path d="" fill="#234460" transform="translate(0,0)"/>
<path d="" fill="#234663" transform="translate(0,0)"/>
<path d="" fill="#254665" transform="translate(0,0)"/>
<path d="" fill="#1E4663" transform="translate(0,0)"/>
<path d="" fill="#244461" transform="translate(0,0)"/>
<path d="" fill="#264662" transform="translate(0,0)"/>
<path d="" fill="#BF384E" transform="translate(0,0)"/>
<path d="" fill="#254561" transform="translate(0,0)"/>
<path d="" fill="#BF374E" transform="translate(0,0)"/>
<path d="" fill="#BA364E" transform="translate(0,0)"/>
<path d="" fill="#274662" transform="translate(0,0)"/>
<path d="" fill="#C03D53" transform="translate(0,0)"/>
<path d="" fill="#2A4762" transform="translate(0,0)"/>
<path d="" fill="#294662" transform="translate(0,0)"/>
<path d="" fill="#284965" transform="translate(0,0)"/>
<path d="" fill="#2A4964" transform="translate(0,0)"/>
<path d="" fill="#C03A53" transform="translate(0,0)"/>
<path d="" fill="#BD374E" transform="translate(0,0)"/>
<path d="" fill="#BE3A4E" transform="translate(0,0)"/>
<path d="" fill="#2C4763" transform="translate(0,0)"/>
<path d="" fill="#BE3652" transform="translate(0,0)"/>
<path d="" fill="#2D4864" transform="translate(0,0)"/>
<path d="" fill="#BD3850" transform="translate(0,0)"/>
<path d="" fill="#1B435F" transform="translate(0,0)"/>
<path d="" fill="#C43A53" transform="translate(0,0)"/>
<path d="" fill="#304A64" transform="translate(0,0)"/>
<path d="" fill="#2F4B62" transform="translate(0,0)"/>
<path d="" fill="#C1374D" transform="translate(0,0)"/>
<path d="" fill="#324B63" transform="translate(0,0)"/>
<path d="" fill="#BE3651" transform="translate(0,0)"/>
<path d="" fill="#1B4261" transform="translate(0,0)"/>
<path d="" fill="#334861" transform="translate(0,0)"/>
<path d="" fill="#BF3B54" transform="translate(0,0)"/>
<path d="" fill="#C0364E" transform="translate(0,0)"/>
<path d="" fill="#364C62" transform="translate(0,0)"/>
<path d="" fill="#1A4362" transform="translate(0,0)"/>
<path d="" fill="#1A415F" transform="translate(0,0)"/>
<path d="" fill="#3E4C64" transform="translate(0,0)"/>
<path d="" fill="#1A4362" transform="translate(0,0)"/>
<path d="" fill="#3E4D63" transform="translate(0,0)"/>
<path d="" fill="#415266" transform="translate(0,0)"/>
<path d="" fill="#434F65" transform="translate(0,0)"/>
<path d="" fill="#BC374D" transform="translate(0,0)"/>
<path d="" fill="#BE364E" transform="translate(0,0)"/>
<path d="" fill="#384F68" transform="translate(0,0)"/>
<path d="" fill="#BB3950" transform="translate(0,0)"/>
<path d="" fill="#BB364D" transform="translate(0,0)"/>
<path d="" fill="#BF374E" transform="translate(0,0)"/>
<path d="" fill="#3B5169" transform="translate(0,0)"/>
<path d="" fill="#1F425F" transform="translate(0,0)"/>
<path d="" fill="#1D425F" transform="translate(0,0)"/>
<path d="" fill="#B93750" transform="translate(0,0)"/>
<path d="" fill="#2C4D6A" transform="translate(0,0)"/>
<path d="" fill="#2B4D66" transform="translate(0,0)"/>
<path d="" fill="#31506A" transform="translate(0,0)"/>
<path d="" fill="#B8364E" transform="translate(0,0)"/>
<path d="" fill="#2F526A" transform="translate(0,0)"/>
<path d="" fill="#BA3550" transform="translate(0,0)"/>
<path d="" fill="#C13150" transform="translate(0,0)"/>
<path d="" fill="#264B68" transform="translate(0,0)"/>
<path d="" fill="#C3334C" transform="translate(0,0)"/>
<path d="" fill="#C63C53" transform="translate(0,0)"/>
<path d="" fill="#274B67" transform="translate(0,0)"/>
<path d="" fill="#C73A51" transform="translate(0,0)"/>
<path d="" fill="#BB3852" transform="translate(0,0)"/>
<path d="" fill="#2B4B6A" transform="translate(0,0)"/>
<path d="" fill="#C53751" transform="translate(0,0)"/>
<path d="" fill="#274A67" transform="translate(0,0)"/>
<path d="" fill="#C13B50" transform="translate(0,0)"/>
<path d="" fill="#254A66" transform="translate(0,0)"/>
<path d="" fill="#274A67" transform="translate(0,0)"/>
<path d="" fill="#2C4A66" transform="translate(0,0)"/>
<path d="" fill="#2B4B69" transform="translate(0,0)"/>
<path d="" fill="#2D4C6B" transform="translate(0,0)"/>
<path d="" fill="#284A67" transform="translate(0,0)"/>
<path d="" fill="#26496A" transform="translate(0,0)"/>
<path d="" fill="#C33B4F" transform="translate(0,0)"/>
<path d="" fill="#294B68" transform="translate(0,0)"/>
<path d="" fill="#294867" transform="translate(0,0)"/>
<path d="" fill="#C23B52" transform="translate(0,0)"/>
<path d="" fill="#234861" transform="translate(0,0)"/>
<path d="" fill="#2C4D67" transform="translate(0,0)"/>
<path d="" fill="#C43751" transform="translate(0,0)"/>
<path d="" fill="#BB3750" transform="translate(0,0)"/>
<path d="" fill="#C13852" transform="translate(0,0)"/>
<path d="" fill="#C03850" transform="translate(0,0)"/>
<path d="" fill="#214461" transform="translate(0,0)"/>
<path d="" fill="#2F4B67" transform="translate(0,0)"/>
<path d="" fill="#2B4A67" transform="translate(0,0)"/>
<path d="" fill="#C43952" transform="translate(0,0)"/>
<path d="" fill="#234660" transform="translate(0,0)"/>
<path d="" fill="#C53752" transform="translate(0,0)"/>
<path d="" fill="#314D67" transform="translate(0,0)"/>
<path d="" fill="#234760" transform="translate(0,0)"/>
<path d="" fill="#2B4A65" transform="translate(0,0)"/>
<path d="" fill="#324C67" transform="translate(0,0)"/>
<path d="" fill="#C0394E" transform="translate(0,0)"/>
<path d="" fill="#2E4B67" transform="translate(0,0)"/>
<path d="" fill="#2D4964" transform="translate(0,0)"/>
<path d="" fill="#BB3852" transform="translate(0,0)"/>
<path d="" fill="#2C4764" transform="translate(0,0)"/>
<path d="" fill="#BF3A52" transform="translate(0,0)"/>
<path d="" fill="#C23A53" transform="translate(0,0)"/>
<path d="" fill="#344C65" transform="translate(0,0)"/>
<path d="" fill="#BF354F" transform="translate(0,0)"/>
<path d="" fill="#2E4864" transform="translate(0,0)"/>
<path d="" fill="#BF3B51" transform="translate(0,0)"/>
<path d="" fill="#2C4A66" transform="translate(0,0)"/>
<path d="" fill="#334B64" transform="translate(0,0)"/>
<path d="" fill="#C43551" transform="translate(0,0)"/>
<path d="" fill="#2C4A64" transform="translate(0,0)"/>
<path d="" fill="#1E415C" transform="translate(0,0)"/>
<path d="" fill="#2F4764" transform="translate(0,0)"/>
<path d="" fill="#354864" transform="translate(0,0)"/>
<path d="" fill="#C03B51" transform="translate(0,0)"/>
<path d="" fill="#BE374E" transform="translate(0,0)"/>
<path d="" fill="#2F4861" transform="translate(0,0)"/>
<path d="" fill="#2F4762" transform="translate(0,0)"/>
<path d="" fill="#C03A52" transform="translate(0,0)"/>
<path d="" fill="#BF3853" transform="translate(0,0)"/>
<path d="" fill="#2E4861" transform="translate(0,0)"/>
<path d="" fill="#324960" transform="translate(0,0)"/>
<path d="" fill="#334762" transform="translate(0,0)"/>
<path d="" fill="#C1344F" transform="translate(0,0)"/>
<path d="" fill="#C5364E" transform="translate(0,0)"/>
<path d="" fill="#B93A53" transform="translate(0,0)"/>
<path d="" fill="#BE3851" transform="translate(0,0)"/>
<path d="" fill="#C13651" transform="translate(0,0)"/>
<path d="" fill="#C1374F" transform="translate(0,0)"/>
<path d="" fill="#C33651" transform="translate(0,0)"/>
<path d="" fill="#C5344F" transform="translate(0,0)"/>
<path d="" fill="#C43950" transform="translate(0,0)"/>
<path d="" fill="#B33B55" transform="translate(0,0)"/>
<path d="" fill="#AD3F56" transform="translate(0,0)"/>
<path d="" fill="#B14154" transform="translate(0,0)"/>
<path d="" fill="#AF3C54" transform="translate(0,0)"/>
<path d="" fill="#374961" transform="translate(0,0)"/>
<path d="" fill="#3B4C62" transform="translate(0,0)"/>
<path d="" fill="#384A61" transform="translate(0,0)"/>
<path d="" fill="#354860" transform="translate(0,0)"/>
<path d="" fill="#2D465F" transform="translate(0,0)"/>
<path d="" fill="#2C465E" transform="translate(0,0)"/>
<path d="" fill="#414D63" transform="translate(0,0)"/>
<path d="" fill="#B63854" transform="translate(0,0)"/>
<path d="" fill="#C03751" transform="translate(0,0)"/>
<path d="" fill="#B93650" transform="translate(0,0)"/>
<path d="" fill="#BD3954" transform="translate(0,0)"/>
<path d="" fill="#B9364F" transform="translate(0,0)"/>
<path d="" fill="#B8354F" transform="translate(0,0)"/>
<path d="" fill="#B63A53" transform="translate(0,0)"/>
<path d="" fill="#B63750" transform="translate(0,0)"/>
<path d="" fill="#B5374F" transform="translate(0,0)"/>
<path d="" fill="#B5364D" transform="translate(0,0)"/>
<path d="" fill="#B03A51" transform="translate(0,0)"/>
<path d="" fill="#BD354B" transform="translate(0,0)"/>
<path d="" fill="#BF3C53" transform="translate(0,0)"/>
<path d="" fill="#A73C4E" transform="translate(0,0)"/>
<path d="" fill="#BD354E" transform="translate(0,0)"/>
<path d="" fill="#BF3650" transform="translate(0,0)"/>
<path d="" fill="#C23C56" transform="translate(0,0)"/>
</svg>
