<!DOCTYPE svg PUBLIC "-//W3C//DTD SVG 1.1//EN" "http://www.w3.org/Graphics/SVG/1.1/DTD/svg11.dtd">
<!-- Uploaded to: SVG Repo, www.svgrepo.com, Transformed by: SVG Repo Mixer Tools -->
<svg fill="#0284c7" height="800px" width="800px" version="1.1" id="Capa_1" xmlns="http://www.w3.org/2000/svg" xmlns:xlink="http://www.w3.org/1999/xlink" viewBox="0 0 489.9 489.9" xml:space="preserve">
<g id="SVGRepo_bgCarrier" stroke-width="0"/>
<g id="SVGRepo_tracerCarrier" stroke-linecap="round" stroke-linejoin="round"/>
<g id="SVGRepo_iconCarrier"> <g> <g> <g> <path d="M37.9,413.25h36.3h341.5H452c21,0,37.9-17,37.9-37.9v-23.3h-30.6h-1.6v-241c0-19-15.4-34.4-34.4-34.4H66.6 c-19,0-34.4,15.4-34.4,34.4v241h-1.6H0v23.3C0,396.25,17,413.25,37.9,413.25z M153.1,180.05l21.5-1.6l8.1-20.1 c1.5-3.8,6.8-3.8,8.4,0l8.1,20.1l21.5,1.6c4,0.3,5.7,5.4,2.6,8l-16.4,14l5.1,21.1c1,4-3.3,7.1-6.8,5l-18.3-11.4l-18.3,11.4 c-3.4,2.2-7.7-1-6.8-5l5.1-21.1l-16.4-14C147.4,185.45,149,180.35,153.1,180.05z M79.1,123.55h48.5v180.7c0,5.6,6.3,9,11,5.8 l48.2-33.1l48.2,33c4.6,3.2,11-0.1,11-5.8v-180.6h164.9v228.5h-120v2.3c0,7.2-5.8,13-13,13H212c-7.2,0-13-5.8-13-13v-2.3H79.1 V123.55z"/> </g> </g> </g> </g>
</svg>